HIERARCHY
ROOT Armature
{
  OFFSET 1.9679 50.7869 13.0653
  CHANNELS 6 Xposition Yposition Zposition Zrotation Xrotation Yrotation
  JOINT Core
  {
    OFFSET -0.635206 16.8572 -51.0592
    CHANNELS 6 Xposition Yposition Zposition Zrotation Xrotation Yrotation
    JOINT FrontLegIK.L
    {
      OFFSET 10.7636 40.3514 -10.2983
      CHANNELS 6 Xposition Yposition Zposition Zrotation Xrotation Yrotation
      JOINT FrontPaw.L
      {
        OFFSET 0 1.73155e-005 0
        CHANNELS 6 Xposition Yposition Zposition Zrotation Xrotation Yrotation
        End Site
        {
          OFFSET 0 4.33935 0
        }
      }
      JOINT FrontLegIKPole.L
      {
        OFFSET 0 27.4489 11.7029
        CHANNELS 6 Xposition Yposition Zposition Zrotation Xrotation Yrotation
        End Site
        {
          OFFSET 0 6.85387 0
        }
      }
    }
    JOINT BackLegIK.L
    {
      OFFSET 14.1749 -5.27545 -3.7701
      CHANNELS 6 Xposition Yposition Zposition Zrotation Xrotation Yrotation
      JOINT BackPaw.L
      {
        OFFSET 0 -1.20246e-005 1.26259e-005
        CHANNELS 6 Xposition Yposition Zposition Zrotation Xrotation Yrotation
        End Site
        {
          OFFSET 0 4.80673 0
        }
      }
      JOINT BackLegIKPole.L
      {
        OFFSET 0.227833 17.573 11.6015
        CHANNELS 6 Xposition Yposition Zposition Zrotation Xrotation Yrotation
        End Site
        {
          OFFSET 0 5.63838 0
        }
      }
    }
    JOINT BackLegIK.R
    {
      OFFSET -12.9044 -19.1551 -5.86817
      CHANNELS 6 Xposition Yposition Zposition Zrotation Xrotation Yrotation
      JOINT BackPaw.R
      {
        OFFSET 0 0 0
        CHANNELS 6 Xposition Yposition Zposition Zrotation Xrotation Yrotation
        End Site
        {
          OFFSET 0 4.80673 0
        }
      }
      JOINT BackLegIKPole.R
      {
        OFFSET -0.227834 17.573 11.6014
        CHANNELS 6 Xposition Yposition Zposition Zrotation Xrotation Yrotation
        End Site
        {
          OFFSET 0 5.63838 0
        }
      }
    }
    JOINT FrontLegIK.R
    {
      OFFSET -9.4932 30.6679 -2.7129
      CHANNELS 6 Xposition Yposition Zposition Zrotation Xrotation Yrotation
      JOINT FrontPaw.R
      {
        OFFSET 0 0 0
        CHANNELS 6 Xposition Yposition Zposition Zrotation Xrotation Yrotation
        End Site
        {
          OFFSET 0 4.33935 0
        }
      }
      JOINT FrontLegIKPole.R
      {
        OFFSET 0 27.4489 11.7029
        CHANNELS 6 Xposition Yposition Zposition Zrotation Xrotation Yrotation
        End Site
        {
          OFFSET 0 6.85387 0
        }
      }
    }
    JOINT SpineCtrl
    {
      OFFSET 0.635178 21.1139 -50.8686
      CHANNELS 6 Xposition Yposition Zposition Zrotation Xrotation Yrotation
      JOINT Spine2.001
      {
        OFFSET 0 0 0
        CHANNELS 6 Xposition Yposition Zposition Zrotation Xrotation Yrotation
        JOINT Spine2
        {
          OFFSET 0 12.1749 0
          CHANNELS 6 Xposition Yposition Zposition Zrotation Xrotation Yrotation
          JOINT Spine1
          {
            OFFSET 0 12.1749 0
            CHANNELS 6 Xposition Yposition Zposition Zrotation Xrotation Yrotation
            JOINT TailBottom
            {
              OFFSET 0 48.2991 5.34964
              CHANNELS 6 Xposition Yposition Zposition Zrotation Xrotation Yrotation
              End Site
              {
                OFFSET 0 0 0
              }
            }
            JOINT Tail1
            {
              OFFSET -0.574857 14.3966 0.537233
              CHANNELS 6 Xposition Yposition Zposition Zrotation Xrotation Yrotation
              JOINT Tail2
              {
                OFFSET 0 7.84149 0
                CHANNELS 6 Xposition Yposition Zposition Zrotation Xrotation Yrotation
                JOINT Tail3
                {
                  OFFSET 0 9.03055 0
                  CHANNELS 6 Xposition Yposition Zposition Zrotation Xrotation Yrotation
                  JOINT Tail4
                  {
                    OFFSET 0 8.20515 0
                    CHANNELS 6 Xposition Yposition Zposition Zrotation Xrotation Yrotation
                    JOINT Tail5
                    {
                      OFFSET 0 9.4978 0
                      CHANNELS 6 Xposition Yposition Zposition Zrotation Xrotation Yrotation
                      JOINT Tail6
                      {
                        OFFSET 0 6.51884 0
                        CHANNELS 6 Xposition Yposition Zposition Zrotation Xrotation Yrotation
                        End Site
                        {
                          OFFSET 0 6.10884 0
                        }
                      }
                    }
                  }
                }
              }
            }
            JOINT Bone
            {
              OFFSET 33.4069 38.6443 -2.41513
              CHANNELS 6 Xposition Yposition Zposition Zrotation Xrotation Yrotation
              JOINT TailTop
              {
                OFFSET 0 2.50112e-005 0
                CHANNELS 6 Xposition Yposition Zposition Zrotation Xrotation Yrotation
                End Site
                {
                  OFFSET 0 0 0
                }
              }
              JOINT Bone_end
              {
                OFFSET 0 12.2515 0
                CHANNELS 6 Xposition Yposition Zposition Zrotation Xrotation Yrotation
                End Site
                {
                  OFFSET 0 0 0
                }
              }
            }
            JOINT BackLeg1.L
            {
              OFFSET -1.91713 6.86269 -1.74095
              CHANNELS 6 Xposition Yposition Zposition Zrotation Xrotation Yrotation
              JOINT BackLeg2.L
              {
                OFFSET 0 10.1896 0
                CHANNELS 6 Xposition Yposition Zposition Zrotation Xrotation Yrotation
                JOINT BackLeg3.L
                {
                  OFFSET 0 27.6585 0
                  CHANNELS 6 Xposition Yposition Zposition Zrotation Xrotation Yrotation
                  JOINT BackLeg4.L
                  {
                    OFFSET 0 20.2079 0
                    CHANNELS 6 Xposition Yposition Zposition Zrotation Xrotation Yrotation
                    End Site
                    {
                      OFFSET 0 15.8172 0
                    }
                  }
                }
              }
            }
            JOINT BackLeg1.R
            {
              OFFSET -1.64678 6.86269 1.99861
              CHANNELS 6 Xposition Yposition Zposition Zrotation Xrotation Yrotation
              JOINT BackLeg2.R
              {
                OFFSET 0 11.0754 0
                CHANNELS 6 Xposition Yposition Zposition Zrotation Xrotation Yrotation
                JOINT BackLeg3.R
                {
                  OFFSET 0 25.8903 0
                  CHANNELS 6 Xposition Yposition Zposition Zrotation Xrotation Yrotation
                  JOINT BackLeg4.R
                  {
                    OFFSET 0 20.2079 0
                    CHANNELS 6 Xposition Yposition Zposition Zrotation Xrotation Yrotation
                    End Site
                    {
                      OFFSET 0 15.8171 0
                    }
                  }
                }
              }
            }
          }
        }
      }
      JOINT Spine3
      {
        OFFSET 0 0 0
        CHANNELS 6 Xposition Yposition Zposition Zrotation Xrotation Yrotation
        JOINT Neck
        {
          OFFSET 0 14.1391 0
          CHANNELS 6 Xposition Yposition Zposition Zrotation Xrotation Yrotation
          JOINT Head2
          {
            OFFSET 0 2.99801 0
            CHANNELS 6 Xposition Yposition Zposition Zrotation Xrotation Yrotation
            End Site
            {
              OFFSET 0 6.46164 0
            }
          }
        }
        JOINT HeadIK
        {
          OFFSET -0.175681 20.3563 -7.09281
          CHANNELS 6 Xposition Yposition Zposition Zrotation Xrotation Yrotation
          JOINT Head
          {
            OFFSET 0 0 0
            CHANNELS 6 Xposition Yposition Zposition Zrotation Xrotation Yrotation
            JOINT Ear.L
            {
              OFFSET 11.0469 5.26744 -12.0054
              CHANNELS 6 Xposition Yposition Zposition Zrotation Xrotation Yrotation
              End Site
              {
                OFFSET 0 10.1211 0
              }
            }
            JOINT Ear.R
            {
              OFFSET -8.84548 5.02071 -13.5443
              CHANNELS 6 Xposition Yposition Zposition Zrotation Xrotation Yrotation
              End Site
              {
                OFFSET 0 10.1211 0
              }
            }
          }
          JOINT Eyes.Base
          {
            OFFSET 0.675326 25.1229 -12.9166
            CHANNELS 6 Xposition Yposition Zposition Zrotation Xrotation Yrotation
            End Site
            {
              OFFSET 0 4.98183 0
            }
          }
          JOINT Eyes.Target
          {
            OFFSET 0.675326 25.1229 -12.9166
            CHANNELS 6 Xposition Yposition Zposition Zrotation Xrotation Yrotation
            End Site
            {
              OFFSET 0 10.8137 0
            }
          }
        }
        JOINT FrontLeg1.L
        {
          OFFSET 6.15836 4.29787 -0.644035
          CHANNELS 6 Xposition Yposition Zposition Zrotation Xrotation Yrotation
          JOINT FrontLeg2.L
          {
            OFFSET 0 18.7233 0
            CHANNELS 6 Xposition Yposition Zposition Zrotation Xrotation Yrotation
            JOINT FrontLeg3.L
            {
              OFFSET 0 16.9177 0
              CHANNELS 6 Xposition Yposition Zposition Zrotation Xrotation Yrotation
              JOINT FrontLeg4.L
              {
                OFFSET 0 10.6804 0
                CHANNELS 6 Xposition Yposition Zposition Zrotation Xrotation Yrotation
                End Site
                {
                  OFFSET 0 9.99857 0
                }
              }
            }
          }
        }
        JOINT FrontLeg1.R
        {
          OFFSET -5.81052 4.29786 -0.644037
          CHANNELS 6 Xposition Yposition Zposition Zrotation Xrotation Yrotation
          JOINT FrontLeg2.R
          {
            OFFSET 0 18.8001 0
            CHANNELS 6 Xposition Yposition Zposition Zrotation Xrotation Yrotation
            JOINT FrontLeg3.R
            {
              OFFSET 0 16.9176 0
              CHANNELS 6 Xposition Yposition Zposition Zrotation Xrotation Yrotation
              JOINT FrontLeg4.R
              {
                OFFSET 0 10.6804 0
                CHANNELS 6 Xposition Yposition Zposition Zrotation Xrotation Yrotation
                End Site
                {
                  OFFSET 0 9.99855 0
                }
              }
            }
          }
        }
      }
    }
  }
  JOINT Bone.001
  {
    OFFSET 0 -39.5765 2.47907
    CHANNELS 6 Xposition Yposition Zposition Zrotation Xrotation Yrotation
    End Site
    {
      OFFSET 0 9.50183 0
    }
  }
  JOINT Bone.002
  {
    OFFSET 6.39762 -39.5765 2.47907
    CHANNELS 6 Xposition Yposition Zposition Zrotation Xrotation Yrotation
    End Site
    {
      OFFSET 0 5.86173 0
    }
  }
}
MOTION
Frames:	4
Frame Time:	0.0416667
1.9679 50.7869 13.0653 -180 -90 -180 -0.635206 16.8572 -51.0592 -180 7.01671e-015 180 10.7636 29.3767 -2.71292 -7.01671e-015 7.01671e-015 -180 -2.64542e-006 1.10627e-005 -1.15436e-005 -7.41201e-006 -35.3567 180 -1.92394e-006 27.4489 11.7029 0 0 -1.92796e-021 15.5509 11.4719 -2.96314 -11.4528 5.81079 -178.164 4.57349e-007 -5.34685e-006 -1.92394e-006 -16.259 -29.4394 -180 3.35735 15.8404 11.6014 -5.49409 -5.38309e-013 3.43172e-012 -13.5134 12.7976 -3.63707 12.6727 8.72928e-006 -180 2.62179e-006 -4.24962e-007 3.84788e-006 16.259 -29.4393 -180 -3.35735 15.8404 11.6014 5.49409 7.58303e-022 -6.36111e-015 -9.4932 29.3767 -2.7129 -7.01671e-015 7.01671e-015 -180 -7.21477e-007 1.44295e-006 4.47952e-016 1.35321e-006 -35.3568 -180 0 27.4489 11.7029 0 0 -1.92796e-021 0.635179 21.0449 -50.1849 180 -79.4416 180 1.62299e-006 -2.53223 -3.65871 179.997 -84.13 89.9958 3.9074e-007 12.1749 -5.82001e-012 2.57337 3.64933e-005 -5.37335e-006 -4.84449e-007 12.1749 1.26016e-011 -14.82 -0.000217195 -4.13415 3.48714e-006 48.2991 5.34964 -0.450778 -21.691 -40.3435 -7.53255 14.7427 1.04023 -40.42 -35.1495 0.320893 -1.18367e-006 7.76431 -4.13346e-007 -2.80148 -10.2985 -0.279978 1.62945e-006 9.01653 1.43629e-006 15.2048 14.0912 -2.43366 1.40944e-006 7.97549 6.66792e-007 48.3046 40.0068 -19.0711 -4.39683e-006 8.90727 -1.46101e-006 3.62385 4.20154 -0.131678 4.10035e-006 4.59299 -1.54388e-006 0.0465502 -0.10348 -0.0565088 17.4299 42.95 -7.36808 43.299 6.15267 -30.9021 -9.61969e-006 2.30873e-005 -1.08222e-006 1.16443e-006 -0.249878 -1.30359e-006 -1.43345e-014 12.2515 0 6.36111e-015 0 -0 -1.46391 5.54288 -1.81098 39.2826 -26.2641 -127.853 4.80985e-007 10.1896 -1.50308e-006 -118.969 68.9981 -98.1552 -9.77e-007 27.6585 -1.02209e-006 -123.083 84.1212 135.496 -1.35277e-006 20.2079 -2.02915e-006 -179.468 -55.8749 -177.173 -0.922776 5.66694 1.99366 50.3492 29.5578 -52.5442 2.40492e-007 11.0754 -1.80369e-006 96.5192 73.8763 112.738 -2.40492e-007 25.8903 -8.41723e-007 155.323 86.4296 -170.104 -1.79181e-015 20.2079 3.20155e-006 179.462 -56.1985 177.168 2.74774e-008 -1.79618e-006 -4.98833e-007 6.04003e-005 76.7518 -4.81444e-005 8.62308e-014 14.1391 -3.00615e-007 10.7132 -50.9194 17.51 -1.50308e-008 2.99801 9.33787e-007 -7.57607 5.13288 -10.7609 -0.175681 20.3563 -7.09281 -0.631438 39.2148 3.56413 6.13443e-007 -7.07127e-006 -2.51531e-006 -0.184782 0.630238 1.26632 11.0469 5.26744 -12.0054 -80.468 -53.9038 -171.486 -8.84548 5.02071 -13.5443 79.3821 -62.6168 168.546 0.675325 25.1229 -12.9166 10.3639 72.1295 169.636 0.675326 25.1229 -12.9166 10.3637 72.1295 169.636 6.15836 4.29787 -0.644035 -48.4227 73.5339 44.3584 -1.08222e-006 18.7233 6.61354e-007 5.68871 66.8108 7.13948 2.96747e-007 16.9177 -1.96557e-006 -7.30682e-005 -34.5105 9.63878e-006 2.5367e-007 10.6804 1.91091e-007 -2.04375e-005 -11.1317 -5.24035e-005 -5.81052 4.29786 -0.644037 50.7972 72.7593 -48.5755 2.40492e-007 18.8001 9.77e-007 -11.2001 66.5589 -2.26631 -5.05459e-007 16.9176 2.78165e-007 -0.000157702 -34.5103 0.000116592 3.0266e-007 10.6804 8.15126e-007 -3.35426e-005 -11.1316 -0.000144457 4.20862e-006 -39.5765 2.47907 -180 90 -180 6.39762 -39.5765 2.47907 -180 90 -180 
1.9679 50.7869 13.0653 -180 -90 -180 -0.635206 16.8572 -51.0592 -180 7.01671e-015 180 10.7636 29.3767 -2.71292 -7.01671e-015 7.01671e-015 -180 -2.56525e-006 1.10092e-005 -1.06886e-005 -7.41201e-006 -35.3567 180 -1.92394e-006 27.4489 11.7029 0 0 -1.92796e-021 15.221 9.3097 -2.96314 -8.7319 6.46876 -178.034 5.39121e-007 -5.82161e-006 -2.13771e-006 -10.5125 -29.4394 -180 2.2701 16.4424 11.6014 -3.5817 -4.79469e-013 3.41025e-012 -13.1998 7.58624 -7.34733 10.0422 7.75936e-006 -180 2.46307e-006 -1.63973e-007 4.70296e-006 10.5123 -29.4393 -180 -2.2701 16.4424 11.6014 3.5817 0 -7.0679e-015 -9.4932 29.3767 -2.7129 -7.01671e-015 7.01671e-015 -180 -9.6197e-007 9.6197e-007 -4.27542e-007 1.35321e-006 -35.3568 -180 0 27.4489 11.7029 0 0 -1.92796e-021 0.635179 21.0449 -50.4439 180 -79.4416 180 1.44571e-006 -1.65249 -2.38761 0.364847 -89.9423 -89.6362 3.47318e-007 12.1749 -5.16713e-012 1.67895 2.51678e-005 -4.74281e-006 -4.31385e-007 12.1749 1.11735e-011 -17.0442 -0.000227163 -4.13415 3.48714e-006 48.2991 5.34964 -0.450778 -21.691 -40.3435 -6.75684 14.4619 0.984155 -36.1067 -29.8872 2.02858 -8.45899e-007 7.81029 -3.7911e-007 0.0946331 -5.84453 -0.0104277 1.67682e-006 8.9971 1.2745e-006 13.3503 18.5811 -2.91608 1.61947e-006 8.07596 5.80097e-007 18.1462 26.8711 -4.66226 -4.25544e-006 9.34126 -1.25918e-006 2.9026 4.79822 -0.120481 4.08928e-006 4.81825 -1.3638e-006 0.0465501 -0.103479 -0.0565071 20.1041 46.9372 -5.43938 33.9711 5.87017 -16.5183 -1.0261e-005 2.3301e-005 -7.7492e-007 1.247e-006 -0.249878 -1.16394e-006 1.43345e-014 12.2515 -7.16723e-015 6.62086e-032 -4.77083e-015 7.95139e-016 -1.62137 6.00141 -1.78665 39.2826 -26.2641 -127.853 5.34427e-007 10.1896 -1.42959e-006 -123.766 69.0819 -95.519 -7.08116e-007 27.6585 -1.26927e-006 -22.8215 83.3862 35.7991 -1.27595e-006 20.2079 -2.11099e-006 -179.132 -67.4656 -176.876 -1.17431 6.08237 1.99526 50.3492 29.5578 -52.5442 1.60328e-007 11.0754 -1.97738e-006 102.577 74.3241 108.777 -3.20656e-007 25.8903 -1.17574e-006 158.384 85.3962 -172.885 4.00821e-008 20.2079 3.32681e-006 179.566 -50.3162 177.252 2.74774e-008 -1.8087e-006 -5.00816e-007 6.33153e-005 77.5025 -5.09862e-005 8.95904e-014 14.1391 -2.53852e-007 10.7132 -50.9194 17.51 -2.33812e-008 2.99801 9.96206e-007 -7.57611 5.13291 -10.7609 -0.175681 20.3563 -7.09281 -0.631438 39.2148 3.56413 6.27117e-007 -7.23135e-006 -2.37852e-006 -0.184782 0.630238 1.26632 11.0469 5.26744 -12.0054 -80.468 -53.9038 -171.486 -8.84548 5.02071 -13.5443 79.3821 -62.6168 168.546 0.675325 25.1229 -12.9166 10.3639 72.1295 169.636 0.675326 25.1229 -12.9166 10.3637 72.1295 169.636 6.15837 4.29787 -0.644035 -48.4226 73.5339 44.3583 -1.14902e-006 18.7233 4.84325e-007 6.06578 65.565 6.79449 2.49555e-007 16.9177 -1.77646e-006 -7.25602e-005 -34.2164 9.95855e-006 2.21732e-007 10.6804 3.56246e-009 -2.00332e-005 -10.9265 -5.2338e-005 -5.81052 4.29786 -0.644037 50.7972 72.7593 -48.5755 2.13771e-007 18.8001 1.09892e-006 -11.3189 65.3046 -2.15784 -4.28015e-007 16.9176 3.29114e-007 -0.000157184 -34.2161 0.000116944 2.89527e-007 10.6804 7.59563e-007 -3.26425e-005 -10.9264 -0.000144268 4.20862e-006 -39.5765 2.47907 -180 90 -180 6.39762 -39.5765 2.47907 -180 90 -180 
1.9679 50.7869 13.0653 -180 -90 -180 -0.635206 16.8572 -51.0592 -180 7.01671e-015 180 10.7636 29.3767 -2.71292 -7.01671e-015 7.01671e-015 -180 -2.48509e-006 1.09558e-005 -9.83347e-006 -7.41201e-006 -35.3567 180 -1.92394e-006 27.4489 11.7029 0 0 -1.92796e-021 14.9271 7.37052 -2.96314 -6.29628 6.92752 -178.089 6.20893e-007 -6.29637e-006 -2.35148e-006 -5.91754 -29.4394 -180 1.38743 16.931 11.6014 -2.03174 -4.17448e-013 3.38928e-012 -12.9795 -2.27764 -5.15522 7.5602 6.78944e-006 -180 2.30435e-006 9.70162e-008 5.55805e-006 5.91752 -29.4393 -180 -1.38743 16.931 11.6014 2.03174 0 -7.77469e-015 -9.4932 29.3767 -2.7129 -7.01671e-015 7.01671e-015 -180 -1.20246e-006 4.80985e-007 -8.55084e-007 1.35321e-006 -35.3568 -180 0 27.4489 11.7029 0 0 -1.92796e-021 0.635179 21.0449 -50.6542 180 -79.4416 180 1.26843e-006 -0.938286 -1.35568 0.0046168 -85.2109 -89.9964 3.03895e-007 12.1749 -4.51379e-012 0.953097 2.20555e-005 -4.11228e-006 -3.78321e-007 12.1749 9.74475e-012 -18.8456 -0.000237131 -4.13415 3.48714e-006 48.2991 5.34964 -0.450778 -21.691 -40.3435 -5.59608 14.3338 0.900239 -32.1812 -20.6551 3.26514 -5.08124e-007 7.88192 -3.44873e-007 0.943946 -2.82917 0.0161101 1.72419e-006 9.01717 1.11328e-006 6.81015 12.8376 -1.25566 1.8295e-006 8.18008 4.93681e-007 6.72591 14.1444 -0.975671 -4.15042e-006 9.46276 -1.06749e-006 3.36371 7.40424 -0.213535 4.11208e-006 5.63427 -1.19421e-006 0.04655 -0.103479 -0.0565054 22.3824 50.2159 -3.88135 27.7006 4.32919 -6.69084 -1.09023e-005 2.35148e-005 -4.67624e-007 1.32957e-006 -0.249878 -1.02429e-006 0 12.2515 0 -4.41391e-032 1.59028e-015 1.59028e-015 -1.7492 6.37365 -1.7669 39.2826 -26.2641 -127.853 5.8787e-007 10.1896 -1.35611e-006 -127.654 69.1083 -93.3793 -4.39233e-007 27.6585 -1.51644e-006 -3.6245 76.3611 17.3501 -1.19912e-006 20.2079 -2.19282e-006 -178.203 -78.6635 -175.983 -1.37851 6.41962 1.99687 50.3492 29.5578 -52.5442 8.01641e-008 11.0754 -2.15107e-006 107.633 74.6308 105.416 -4.00821e-007 25.8903 -1.50976e-006 162.847 70.3525 -175.999 8.01641e-008 20.2079 3.45207e-006 179.103 -68.1286 176.849 2.74774e-008 -1.82123e-006 -5.02799e-007 6.59473e-005 78.1118 -5.35588e-005 9.25021e-014 14.1391 -2.0709e-007 10.7133 -50.9194 17.5101 -3.17316e-008 2.99801 1.05863e-006 -7.57615 5.13293 -10.7609 -0.175681 20.3563 -7.09281 -0.631438 39.2148 3.56413 6.40791e-007 -7.39143e-006 -2.24172e-006 -0.184782 0.630238 1.26632 11.0469 5.26744 -12.0054 -80.468 -53.9038 -171.486 -8.84548 5.02071 -13.5443 79.3821 -62.6168 168.546 0.675325 25.1229 -12.9166 10.3639 72.1295 169.636 0.675326 25.1229 -12.9166 10.3637 72.1295 169.636 6.15837 4.29787 -0.644035 -48.4226 73.5339 44.3583 -1.21582e-006 18.7233 3.07296e-007 6.34997 64.5392 6.53681 2.02363e-007 16.9177 -1.58736e-006 -7.20474e-005 -33.9622 1.02812e-005 1.89795e-007 10.6804 -1.83966e-007 -1.96554e-005 -10.7494 -5.2278e-005 -5.81052 4.29786 -0.644037 50.7972 72.7593 -48.5755 1.8705e-007 18.8001 1.22083e-006 -11.4084 64.2727 -2.0768 -3.5057e-007 16.9176 3.80062e-007 -0.000156572 -33.962 0.000117352 2.76393e-007 10.6804 7.04e-007 -3.18157e-005 -10.7493 -0.000144094 4.20862e-006 -39.5765 2.47907 -180 90 -180 6.39762 -39.5765 2.47907 -180 90 -180 
1.9679 50.7869 13.0653 -180 -90 -180 -0.635206 16.8572 -51.0592 -180 7.01671e-015 180 10.7636 29.3767 -2.71292 -7.01671e-015 7.01671e-015 -180 -2.40492e-006 1.09023e-005 -8.97838e-006 -7.41201e-006 -35.3567 180 -1.92394e-006 27.4489 11.7029 0 0 -1.92796e-021 14.6794 5.68723 -2.96314 -4.24976 7.0835 -178.146 7.02666e-007 -6.77113e-006 -2.56525e-006 -2.61452 -29.4394 -180 0.743759 17.2874 11.6014 -0.903256 -3.60198e-013 3.36945e-012 -12.9044 -8.50328 -2.96312 5.09518 5.81952e-006 -180 2.14563e-006 3.58005e-007 6.41313e-006 2.61454 -29.4393 -180 -0.743761 17.2874 11.6014 0.903257 0 -8.48148e-015 -9.4932 29.3767 -2.7129 -7.01671e-015 7.01671e-015 -180 -1.44295e-006 0 -1.28263e-006 1.35321e-006 -35.3568 -180 0 27.4489 11.7029 0 0 -1.92796e-021 0.635179 21.0449 -50.8075 180 -79.4416 180 1.09115e-006 -0.417465 -0.60317 0.00263003 -81.8152 -89.9984 2.60473e-007 12.1749 -3.86112e-012 0.423979 1.89432e-005 -3.48174e-006 -3.25257e-007 12.1749 8.316e-012 -20.1562 -0.000247099 -4.13416 3.48714e-006 48.2991 5.34964 -0.450778 -21.691 -40.3435 -4.20678 14.3477 0.7998 -30.5651 -12.1115 3.57506 -1.70349e-007 7.92346 -3.10636e-007 0.809322 -1.71099 0.00779029 1.77155e-006 9.03198 9.52073e-007 2.37411 5.85364 -0.341554 2.03952e-006 8.21553 4.07278e-007 2.46126 7.1005 -0.221083 -4.04542e-006 9.50484 -8.79958e-007 1.91461 5.82752 -0.0932061 4.13487e-006 6.51832 -1.02913e-006 0.0728513 -0.00609876 -0.0565036 24.1856 52.6622 -2.75543 23.8737 2.79779 -0.530723 -1.15436e-005 2.37286e-005 -1.60328e-007 1.41214e-006 -0.249878 -8.84637e-007 0 12.2515 0 -1.59028e-015 -5.96354e-016 3.97569e-016 -1.84241 6.64511 -1.7525 39.2826 -26.2641 -127.853 6.41313e-007 10.1896 -1.28263e-006 -130.478 69.0982 -91.8255 -1.70349e-007 27.6585 -1.76361e-006 0.607557 71.086 13.9352 -1.1223e-006 20.2079 -2.27466e-006 -170.133 -87.8989 -167.942 -1.52742 6.66557 1.99712 50.3492 29.5578 -52.5442 0 11.0754 -2.32476e-006 111.384 74.8234 102.899 -4.80985e-007 25.8903 -1.84377e-006 158.817 73.7165 -171.631 1.20246e-007 20.2079 3.57732e-006 14.2596 -88.538 12.0798 2.74774e-008 -1.83375e-006 -5.04782e-007 6.80401e-005 78.556 -5.56084e-005 9.51898e-014 14.1391 -1.60327e-007 10.7133 -50.9195 17.5101 -4.00821e-008 2.99801 1.12104e-006 -7.57619 5.13296 -10.7609 -0.175681 20.3563 -7.09281 -0.631438 39.2148 3.56413 6.54465e-007 -7.55151e-006 -2.10493e-006 -0.184782 0.630238 1.26632 11.0469 5.26744 -12.0054 -80.468 -53.9038 -171.486 -8.84548 5.02071 -13.5443 79.382 -62.6168 168.546 0.675326 25.1229 -12.9166 10.364 72.1294 169.636 0.675326 25.1229 -12.9166 10.3637 72.1295 169.636 6.15837 4.29787 -0.644035 -48.4226 73.5339 44.3583 -1.28263e-006 18.7233 1.30267e-007 6.54606 63.7831 6.36032 1.55171e-007 16.9177 -1.39825e-006 -7.15248e-005 -33.7679 1.06095e-005 1.57857e-007 10.6804 -3.71494e-007 -1.93168e-005 -10.6141 -5.22257e-005 -5.81052 4.29786 -0.644037 50.7972 72.7593 -48.5755 1.60328e-007 18.8001 1.34275e-006 -11.4702 63.5122 -2.02128 -2.73125e-007 16.9176 4.3101e-007 -0.000155816 -33.7677 0.000117842 2.6326e-007 10.6804 6.48437e-007 -3.10968e-005 -10.614 -0.000143942 4.20862e-006 -39.5765 2.47907 -180 90 -180 6.39762 -39.5765 2.47907 -180 90 -180 
